%TF.GenerationSoftware,KiCad,Pcbnew,8.0.0*%
%TF.CreationDate,2024-03-03T18:29:18-05:00*%
%TF.ProjectId,usbreakout,75736272-6561-46b6-9f75-742e6b696361,rev?*%
%TF.SameCoordinates,Original*%
%TF.FileFunction,Profile,NP*%
%FSLAX46Y46*%
G04 Gerber Fmt 4.6, Leading zero omitted, Abs format (unit mm)*
G04 Created by KiCad (PCBNEW 8.0.0) date 2024-03-03 18:29:18*
%MOMM*%
%LPD*%
G01*
G04 APERTURE LIST*
%ADD10C,0.150000*%
%TA.AperFunction,Profile*%
%ADD11C,0.050000*%
%TD*%
G04 APERTURE END LIST*
D10*
X140720605Y-67434586D02*
X140727585Y-66767956D01*
X140727585Y-66767956D02*
X141723043Y-67206975D01*
X141636286Y-66396498D02*
X141684401Y-66349380D01*
X141684401Y-66349380D02*
X141731519Y-66397495D01*
X141731519Y-66397495D02*
X141683404Y-66444613D01*
X141683404Y-66444613D02*
X141636286Y-66396498D01*
X141636286Y-66396498D02*
X141731519Y-66397495D01*
X140741047Y-65482313D02*
X140739053Y-65672779D01*
X140739053Y-65672779D02*
X140785672Y-65768510D01*
X140785672Y-65768510D02*
X140832790Y-65816625D01*
X140832790Y-65816625D02*
X140974642Y-65913354D01*
X140974642Y-65913354D02*
X141164609Y-65962965D01*
X141164609Y-65962965D02*
X141545541Y-65966953D01*
X141545541Y-65966953D02*
X141641272Y-65920334D01*
X141641272Y-65920334D02*
X141689387Y-65873216D01*
X141689387Y-65873216D02*
X141738001Y-65778482D01*
X141738001Y-65778482D02*
X141739995Y-65588016D01*
X141739995Y-65588016D02*
X141693376Y-65492285D01*
X141693376Y-65492285D02*
X141646258Y-65444170D01*
X141646258Y-65444170D02*
X141551524Y-65395556D01*
X141551524Y-65395556D02*
X141313442Y-65393063D01*
X141313442Y-65393063D02*
X141217710Y-65439682D01*
X141217710Y-65439682D02*
X141169595Y-65486800D01*
X141169595Y-65486800D02*
X141120981Y-65581534D01*
X141120981Y-65581534D02*
X141118987Y-65772000D01*
X141118987Y-65772000D02*
X141165606Y-65867732D01*
X141165606Y-65867732D02*
X141212724Y-65915847D01*
X141212724Y-65915847D02*
X141307458Y-65964460D01*
X141084334Y-64533474D02*
X141750964Y-64540455D01*
X140700910Y-64767568D02*
X141412663Y-65013129D01*
X141412663Y-65013129D02*
X141419145Y-64394115D01*
X140758498Y-63815737D02*
X140759495Y-63720504D01*
X140759495Y-63720504D02*
X140808109Y-63625770D01*
X140808109Y-63625770D02*
X140856224Y-63578652D01*
X140856224Y-63578652D02*
X140951956Y-63532033D01*
X140951956Y-63532033D02*
X141142920Y-63486411D01*
X141142920Y-63486411D02*
X141381002Y-63488904D01*
X141381002Y-63488904D02*
X141570969Y-63538515D01*
X141570969Y-63538515D02*
X141665704Y-63587129D01*
X141665704Y-63587129D02*
X141712821Y-63635244D01*
X141712821Y-63635244D02*
X141759441Y-63730975D01*
X141759441Y-63730975D02*
X141758443Y-63826208D01*
X141758443Y-63826208D02*
X141709830Y-63920942D01*
X141709830Y-63920942D02*
X141661715Y-63968060D01*
X141661715Y-63968060D02*
X141565983Y-64014679D01*
X141565983Y-64014679D02*
X141375019Y-64060301D01*
X141375019Y-64060301D02*
X141136937Y-64057808D01*
X141136937Y-64057808D02*
X140946970Y-64008198D01*
X140946970Y-64008198D02*
X140852235Y-63959584D01*
X140852235Y-63959584D02*
X140805117Y-63911469D01*
X140805117Y-63911469D02*
X140758498Y-63815737D01*
X141104278Y-62628817D02*
X141770908Y-62635797D01*
X140720854Y-62862910D02*
X141432607Y-63108471D01*
X141432607Y-63108471D02*
X141439089Y-62489457D01*
X141784371Y-61350153D02*
X141117741Y-61343173D01*
X141212973Y-61344170D02*
X141165856Y-61296055D01*
X141165856Y-61296055D02*
X141119236Y-61200323D01*
X141119236Y-61200323D02*
X141120732Y-61057474D01*
X141120732Y-61057474D02*
X141169346Y-60962740D01*
X141169346Y-60962740D02*
X141265077Y-60916120D01*
X141265077Y-60916120D02*
X141788858Y-60921605D01*
X141265077Y-60916120D02*
X141170343Y-60867507D01*
X141170343Y-60867507D02*
X141123724Y-60771775D01*
X141123724Y-60771775D02*
X141125220Y-60628926D01*
X141125220Y-60628926D02*
X141173833Y-60534192D01*
X141173833Y-60534192D02*
X141269565Y-60487572D01*
X141269565Y-60487572D02*
X141793346Y-60493057D01*
X141798332Y-60016893D02*
X141131701Y-60009913D01*
X141226934Y-60010910D02*
X141179816Y-59962795D01*
X141179816Y-59962795D02*
X141133197Y-59867063D01*
X141133197Y-59867063D02*
X141134693Y-59724214D01*
X141134693Y-59724214D02*
X141183307Y-59629480D01*
X141183307Y-59629480D02*
X141279038Y-59582860D01*
X141279038Y-59582860D02*
X141802819Y-59588345D01*
X141279038Y-59582860D02*
X141184304Y-59534247D01*
X141184304Y-59534247D02*
X141137685Y-59438515D01*
X141137685Y-59438515D02*
X141139180Y-59295666D01*
X141139180Y-59295666D02*
X141187794Y-59200932D01*
X141187794Y-59200932D02*
X141283526Y-59154313D01*
X141283526Y-59154313D02*
X141807306Y-59159797D01*
D11*
X135159973Y-59365235D02*
X143085958Y-59448230D01*
X135079973Y-67005235D02*
X143005958Y-67088230D01*
X142499570Y-59442090D02*
X142419570Y-67082090D01*
X142499570Y-59442090D02*
X142419570Y-67082090D01*
X142499570Y-59442090D02*
X143074163Y-60574672D01*
X142499570Y-59442090D02*
X141901386Y-60562392D01*
X142419570Y-67082090D02*
X141844977Y-65949508D01*
X142419570Y-67082090D02*
X143017754Y-65961788D01*
X114000000Y-57000000D02*
X137500000Y-57000000D01*
X137500000Y-69500000D01*
X114000000Y-69500000D01*
X114000000Y-57000000D01*
M02*
