%TF.GenerationSoftware,KiCad,Pcbnew,8.0.0*%
%TF.CreationDate,2024-03-03T18:29:18-05:00*%
%TF.ProjectId,usbreakout,75736272-6561-46b6-9f75-742e6b696361,rev?*%
%TF.SameCoordinates,Original*%
%TF.FileFunction,Legend,Top*%
%TF.FilePolarity,Positive*%
%FSLAX46Y46*%
G04 Gerber Fmt 4.6, Leading zero omitted, Abs format (unit mm)*
G04 Created by KiCad (PCBNEW 8.0.0) date 2024-03-03 18:29:18*
%MOMM*%
%LPD*%
G01*
G04 APERTURE LIST*
%ADD10C,0.150000*%
%ADD11C,0.120000*%
%ADD12C,0.254001*%
%ADD13C,0.059995*%
G04 APERTURE END LIST*
D10*
X113594819Y-59643333D02*
X114309104Y-59643333D01*
X114309104Y-59643333D02*
X114451961Y-59690952D01*
X114451961Y-59690952D02*
X114547200Y-59786190D01*
X114547200Y-59786190D02*
X114594819Y-59929047D01*
X114594819Y-59929047D02*
X114594819Y-60024285D01*
X114594819Y-58643333D02*
X114594819Y-59214761D01*
X114594819Y-58929047D02*
X113594819Y-58929047D01*
X113594819Y-58929047D02*
X113737676Y-59024285D01*
X113737676Y-59024285D02*
X113832914Y-59119523D01*
X113832914Y-59119523D02*
X113880533Y-59214761D01*
X125115642Y-66177717D02*
X125115642Y-66987240D01*
X125115642Y-66987240D02*
X125163261Y-67082478D01*
X125163261Y-67082478D02*
X125210880Y-67130098D01*
X125210880Y-67130098D02*
X125306118Y-67177717D01*
X125306118Y-67177717D02*
X125496594Y-67177717D01*
X125496594Y-67177717D02*
X125591832Y-67130098D01*
X125591832Y-67130098D02*
X125639451Y-67082478D01*
X125639451Y-67082478D02*
X125687070Y-66987240D01*
X125687070Y-66987240D02*
X125687070Y-66177717D01*
X126687070Y-67177717D02*
X126115642Y-67177717D01*
X126401356Y-67177717D02*
X126401356Y-66177717D01*
X126401356Y-66177717D02*
X126306118Y-66320574D01*
X126306118Y-66320574D02*
X126210880Y-66415812D01*
X126210880Y-66415812D02*
X126115642Y-66463431D01*
X136804819Y-67333333D02*
X137519104Y-67333333D01*
X137519104Y-67333333D02*
X137661961Y-67380952D01*
X137661961Y-67380952D02*
X137757200Y-67476190D01*
X137757200Y-67476190D02*
X137804819Y-67619047D01*
X137804819Y-67619047D02*
X137804819Y-67714285D01*
X136900057Y-66904761D02*
X136852438Y-66857142D01*
X136852438Y-66857142D02*
X136804819Y-66761904D01*
X136804819Y-66761904D02*
X136804819Y-66523809D01*
X136804819Y-66523809D02*
X136852438Y-66428571D01*
X136852438Y-66428571D02*
X136900057Y-66380952D01*
X136900057Y-66380952D02*
X136995295Y-66333333D01*
X136995295Y-66333333D02*
X137090533Y-66333333D01*
X137090533Y-66333333D02*
X137233390Y-66380952D01*
X137233390Y-66380952D02*
X137804819Y-66952380D01*
X137804819Y-66952380D02*
X137804819Y-66333333D01*
D11*
%TO.C,J1*%
X118180000Y-60640000D02*
X136020000Y-60640000D01*
X118180000Y-60640000D02*
X118180000Y-57980000D01*
X136020000Y-60640000D02*
X136020000Y-57980000D01*
X115580000Y-59310000D02*
X115580000Y-57980000D01*
X115580000Y-57980000D02*
X116910000Y-57980000D01*
X118180000Y-57980000D02*
X136020000Y-57980000D01*
D12*
%TO.C,U1*%
X130002045Y-64722898D02*
X129138190Y-64722898D01*
X121753049Y-64722898D02*
X121753049Y-64120790D01*
X122615914Y-64722898D02*
X121753049Y-64722898D01*
X121753049Y-61821908D02*
X122615914Y-61821908D01*
X121753049Y-62425007D02*
X121753049Y-61821908D01*
X130002045Y-61821908D02*
X130002045Y-62467882D01*
X129138190Y-61821908D02*
X130002045Y-61821908D01*
X130002045Y-64077915D02*
X130002045Y-64700902D01*
D13*
X130005042Y-61822898D02*
G75*
G02*
X129945048Y-61822898I-29997J0D01*
G01*
X129945048Y-61822898D02*
G75*
G02*
X130005042Y-61822898I29997J0D01*
G01*
D11*
%TO.C,J2*%
X133310000Y-65670000D02*
X115470000Y-65670000D01*
X133310000Y-65670000D02*
X133310000Y-68330000D01*
X115470000Y-65670000D02*
X115470000Y-68330000D01*
X135910000Y-67000000D02*
X135910000Y-68330000D01*
X135910000Y-68330000D02*
X134580000Y-68330000D01*
X133310000Y-68330000D02*
X115470000Y-68330000D01*
%TD*%
M02*
